<svg width="420" height="60" viewBox="0 0 420 60" fill="none" xmlns="http://www.w3.org/2000/svg">
<rect width="420" height="60" fill="white"/>
<path d="M11.6113 23.6975H19.6982V48.0337H11.6113V23.6975ZM15.7089 11.9664C12.9411 11.9664 11.1328 13.7835 11.1328 16.1685C11.1328 18.5045 12.8882 20.3744 15.6031 20.3744H15.6546C18.4754 20.3744 20.232 18.5044 20.232 16.1685C20.1791 13.7835 18.4755 11.9664 15.7089 11.9664ZM39.5539 23.1258C35.2612 23.1258 33.3381 25.4869 32.2653 27.1427V23.6975H24.176C24.2831 25.9805 24.176 48.0337 24.176 48.0337H32.2653V34.4426C32.2653 33.7147 32.3182 32.9895 32.5311 32.4681C33.1168 31.0149 34.4477 29.5101 36.6802 29.5101C39.6093 29.5101 40.7791 31.7428 40.7791 35.0129V48.0336H48.8672V34.0788C48.8672 26.6039 44.8779 23.1258 39.5539 23.1258Z" fill="black"/>
<path fill-rule="evenodd" clip-rule="evenodd" d="M109.541 26.5966C109.278 25.3081 108.883 24.0391 108.372 22.8269C107.87 21.6366 107.246 20.4909 106.523 19.4199C105.805 18.3578 104.981 17.3598 104.074 16.4535C103.168 15.5455 102.169 14.7212 101.107 14.0047C100.036 13.2785 98.8892 12.6578 97.7005 12.1539C96.4883 11.6436 95.2201 11.2476 93.9308 10.9863C92.6106 10.7153 91.2507 10.5774 89.8925 10.5774C88.5326 10.5774 87.1743 10.7153 85.8526 10.9863C84.5641 11.2476 83.2951 11.6444 82.0837 12.1539C80.895 12.6578 79.7477 13.2793 78.675 14.0047C77.6129 14.7212 76.6149 15.5447 75.7086 16.4535C74.8015 17.3598 73.9787 18.3586 73.2615 19.4199C72.5369 20.4909 71.9146 21.6366 71.4123 22.8269C70.8987 24.0391 70.5052 25.3081 70.2415 26.5966C69.9713 27.9151 69.8342 29.275 69.8342 30.6341C69.8342 31.9956 69.9713 33.3555 70.2415 34.6748C70.5052 35.9633 70.8995 37.2323 71.4115 38.4437C71.9138 39.6324 72.5369 40.7813 73.2607 41.8523C73.9779 42.9144 74.8007 43.9108 75.7078 44.8188C76.6141 45.7251 77.6129 46.5478 78.6742 47.2659C79.7469 47.9905 80.8942 48.6128 82.0829 49.1151C83.2935 49.6287 84.5633 50.0198 85.8518 50.2843C87.1735 50.5569 88.5318 50.6932 89.8917 50.6932C91.2499 50.6932 92.6098 50.5569 93.9299 50.2843C95.2201 50.0198 96.4874 49.6279 97.6997 49.1151C98.8883 48.6128 100.036 47.9897 101.107 47.2659C102.169 46.5478 103.167 45.7259 104.073 44.8188C104.979 43.9108 105.804 42.9136 106.522 41.8523C107.246 40.7813 107.869 39.6324 108.371 38.4437C108.883 37.2331 109.277 35.9633 109.54 34.6748C109.811 33.3547 109.948 31.9948 109.948 30.6341C109.948 29.275 109.812 27.9151 109.541 26.5966ZM107.014 30.4645C106.767 30.411 100.97 29.163 95.0846 29.903C94.9645 29.6101 94.842 29.3148 94.7154 29.0186C94.3592 28.1804 93.9754 27.3496 93.5762 26.5341C100.342 23.7738 103.088 19.8021 103.12 19.755C105.522 22.6711 106.975 26.3986 107.014 30.4645ZM101.205 17.7793C101.162 17.8458 98.7228 21.5587 92.2577 23.9823C89.3294 18.602 86.1122 14.3284 85.855 13.9893C87.15 13.6753 88.5001 13.5057 89.8917 13.5057C94.2294 13.5057 98.1865 15.122 101.205 17.7793ZM85.7885 14.0031C85.7885 14.0047 85.7852 14.0063 85.7852 14.0063C85.7852 14.0063 85.7666 14.0112 85.7349 14.0177C85.752 14.0128 85.7714 14.0096 85.7885 14.0031ZM82.5827 15.1423C82.8107 15.4482 85.9792 19.7428 88.944 25.012C80.7189 27.197 73.5812 27.1119 73.1284 27.1037C74.2416 21.7981 77.8061 17.3987 82.5827 15.1423ZM72.7625 30.6341C72.7625 30.4515 72.7706 30.273 72.7771 30.0929C73.0789 30.0994 81.5433 30.2917 90.3623 27.6522C90.8532 28.6129 91.323 29.589 91.7522 30.5643C91.5258 30.6276 91.3002 30.6958 91.0771 30.7688C81.833 33.7563 77.144 42.0747 77.144 42.0747C77.144 42.0747 77.1505 42.0795 77.1505 42.0828C74.4234 39.0474 72.7625 35.0351 72.7625 30.6341ZM89.8917 47.7649C85.7463 47.7649 81.9441 46.2914 78.9809 43.8394C79.2057 44.022 79.3647 44.1388 79.3647 44.1388C79.3647 44.1388 82.6484 36.9775 92.8062 33.4382C92.8443 33.4236 92.8824 33.4131 92.9206 33.4017C95.3312 39.6648 96.326 44.9105 96.5799 46.4075C94.5239 47.2821 92.2642 47.7649 89.8917 47.7649ZM99.4636 44.8431C99.2892 43.8086 98.3764 38.7812 96.1296 32.6074C101.658 31.723 106.451 33.2395 106.804 33.3555C106.042 38.1281 103.31 42.245 99.4636 44.8431Z" fill="black"/>
<g clip-path="url(#clip0_14_64)">
<path d="M150 53C162.703 53 173 42.7025 173 30C173 17.2975 162.703 7 150 7C137.297 7 127 17.2975 127 30C127 42.7025 137.297 53 150 53Z" fill="#030404"/>
<path d="M156.414 22.7572C157.97 22.7572 159.232 21.4953 159.232 19.9386C159.232 18.3819 157.97 17.12 156.414 17.12C154.857 17.12 153.595 18.3819 153.595 19.9386C153.595 21.4953 154.857 22.7572 156.414 22.7572Z" fill="white"/>
<path d="M159.357 24.6047H146.455V23.7591C146.455 22.0992 148.114 22.0679 148.96 22.0679C149.931 22.0679 150.369 22.1619 150.369 22.1619V17.5895C150.369 17.5895 149.492 17.4642 148.302 17.4642C145.609 17.4642 140.629 18.2159 140.629 23.9157V24.636H138.281V28.8639H140.629V37.7894H138.437V42.0173H149.023V37.7894H146.455V28.8639H153.501V37.7894H151.309V42.0173H161.55V37.7894H159.357V24.6047Z" fill="white"/>
</g>
<path d="M201.319 38.669C201.906 38.669 202.464 38.6169 202.989 38.4993C203.522 38.3837 203.994 38.1983 204.394 37.9254C204.792 37.663 205.123 37.3026 205.362 36.8465C205.603 36.3924 205.718 35.803 205.718 35.0916C205.718 33.6971 205.325 32.7056 204.545 32.1048C203.762 31.5111 202.719 31.2164 201.437 31.2164H194.958V38.669H201.319ZM200.989 27.1485C202.044 27.1485 202.919 26.8985 203.612 26.3904C204.297 25.8893 204.628 25.0635 204.628 23.9283C204.628 23.2993 204.519 22.7786 204.297 22.3745C204.067 21.9704 203.762 21.6549 203.378 21.433C202.997 21.2028 202.566 21.0445 202.067 20.9581C201.576 20.8623 201.062 20.8248 200.534 20.8248H194.958V27.1485H200.989ZM201.76 16.2142C203.054 16.2142 204.223 16.3257 205.29 16.558C206.353 16.7829 207.258 17.1589 208.024 17.6744C208.778 18.1899 209.369 18.8752 209.792 19.7385C210.203 20.5894 210.41 21.6549 210.41 22.9139C210.41 24.2761 210.102 25.4144 209.482 26.3247C208.859 27.2329 207.944 27.9774 206.722 28.5565C208.386 29.0356 209.621 29.8781 210.438 31.0769C211.26 32.2839 211.663 33.7274 211.663 35.4208C211.663 36.7933 211.401 37.9744 210.875 38.9689C210.345 39.975 209.623 40.7905 208.733 41.4195C207.837 42.0538 206.809 42.5203 205.655 42.8234C204.515 43.1254 203.33 43.2785 202.116 43.2785H189V16.2142H201.76Z" fill="#030404"/>
<path d="M226.341 28.2826C225.701 27.5755 224.619 27.1923 223.297 27.1923C222.437 27.1923 221.726 27.337 221.155 27.6318C220.597 27.9233 220.14 28.2847 219.792 28.7117C219.444 29.145 219.208 29.6032 219.07 30.0927C218.932 30.5697 218.849 31.0019 218.825 31.3841H227.582C227.454 30.0114 226.984 28.9961 226.341 28.2826ZM220.156 38.5795C220.963 39.3669 222.129 39.7626 223.639 39.7626C224.724 39.7626 225.661 39.4887 226.449 38.9409C227.229 38.3941 227.704 37.8098 227.887 37.2037H232.628C231.865 39.5626 230.71 41.2467 229.132 42.2611C227.573 43.2786 225.674 43.7858 223.459 43.7858C221.915 43.7858 220.526 43.5358 219.278 43.0442C218.032 42.5453 216.99 41.8476 216.113 40.9363C215.259 40.0219 214.596 38.9409 214.123 37.6714C213.655 36.4081 213.42 35.0094 213.42 33.4941C213.42 32.0287 213.665 30.6603 214.144 29.3949C214.631 28.1254 215.308 27.0298 216.197 26.1113C217.087 25.1874 218.142 24.4584 219.371 23.9252C220.601 23.3951 221.957 23.1285 223.459 23.1285C225.117 23.1285 226.567 23.4472 227.813 24.0971C229.052 24.7386 230.07 25.6071 230.868 26.6944C231.666 27.7796 232.236 29.021 232.591 30.4135C232.943 31.8038 233.067 33.2556 232.966 34.7761H218.825C218.825 36.3258 219.348 37.7921 220.156 38.5795Z" fill="#030404"/>
<path d="M228.694 18.0306H217.723V20.7009H228.694V18.0306Z" fill="#030404"/>
<path fill-rule="evenodd" clip-rule="evenodd" d="M270 9.875C258.886 9.875 249.875 19.1109 249.875 30.5121C249.875 39.6313 255.643 47.3578 263.639 50.0891C264.645 50.2777 265.014 49.6398 265.014 49.0918C265.014 48.5977 264.996 47.3039 264.987 45.5789C259.389 46.8277 258.204 42.8117 258.204 42.8117C257.287 40.4309 255.966 39.793 255.966 39.793C254.143 38.5082 256.101 38.5352 256.101 38.5352C258.123 38.6789 259.183 40.6645 259.183 40.6645C260.98 43.818 263.891 42.9105 265.041 42.3805C265.22 41.0508 265.741 40.1344 266.316 39.6223C261.851 39.1012 257.152 37.3313 257.152 29.425C257.152 27.1699 257.934 25.3281 259.219 23.8906C259.012 23.3695 258.32 21.2672 259.416 18.4281C259.416 18.4281 261.105 17.8711 264.951 20.5395C266.559 20.0813 268.275 19.8566 269.991 19.8477C271.698 19.8566 273.423 20.0813 275.031 20.5395C278.877 17.8711 280.557 18.4281 280.557 18.4281C281.653 21.2672 280.961 23.3695 280.754 23.8906C282.039 25.3371 282.821 27.1789 282.821 29.425C282.821 37.3492 278.113 39.0922 273.63 39.6043C274.348 40.2422 274.995 41.5 274.995 43.4227C274.995 46.1809 274.968 48.409 274.968 49.0828C274.968 49.6309 275.328 50.2777 276.352 50.0711C284.366 47.3488 290.125 39.6223 290.125 30.5121C290.125 19.1109 281.114 9.875 270 9.875Z" fill="black"/>
<g clip-path="url(#clip1_14_64)">
<path fill-rule="evenodd" clip-rule="evenodd" d="M350.934 30C350.934 18.4464 341.554 9.06616 330 9.06616H329.999C318.446 9.06616 309.066 18.4464 309.066 30C309.066 41.5537 318.446 50.9339 329.999 50.9339H330C341.554 50.9339 350.934 41.5537 350.934 30ZM332.102 30.0002C332.102 35.1461 327.959 39.3176 322.848 39.3176C317.737 39.3176 313.594 35.1451 313.594 30.0002C313.594 24.8552 317.737 20.6824 322.848 20.6824C327.959 20.6824 332.102 24.8543 332.102 30.0002ZM342.254 30.0002C342.254 34.844 340.182 38.7721 337.627 38.7721C335.071 38.7721 333 34.844 333 30.0002C333 25.1564 335.071 21.2282 337.626 21.2282C340.182 21.2282 342.254 25.1552 342.254 30.0002H342.254ZM346.406 30.0002C346.406 34.339 345.678 37.8585 344.779 37.8585C343.88 37.8585 343.152 34.34 343.152 30.0002C343.152 25.6604 343.88 22.1419 344.779 22.1419C345.677 22.1419 346.406 25.6601 346.406 30.0002Z" fill="black"/>
</g>
<path d="M409.88 22.2272L390.992 9.63516C390.347 9.23832 389.659 9.23473 389.008 9.63516L370.12 22.2272C369.636 22.5499 369.336 23.1267 369.336 23.7031V36.2951C369.336 36.8716 369.636 37.4483 370.12 37.771L389.008 50.365C389.653 50.7617 390.341 50.7654 390.992 50.365L409.88 37.771C410.364 37.4484 410.664 36.8716 410.664 36.2951V23.7031C410.664 23.1267 410.364 22.5499 409.88 22.2272ZM391.776 14.4319L405.682 23.7031L399.478 27.8545L391.776 22.7115V14.4319ZM388.224 14.4319V22.7114L380.521 27.8544L374.317 23.703L388.224 14.4319ZM372.888 27.0241L377.339 29.9991L372.888 32.9742V27.0241ZM388.224 45.5663L374.317 36.2951L380.521 32.1439L388.224 37.2869V45.5663ZM390 34.1963L383.727 29.9991L390 25.8017L396.273 29.9991L390 34.1963ZM391.776 45.5663V37.287L399.478 32.144L405.682 36.2952L391.776 45.5663ZM407.112 32.9742L402.661 29.9991L407.112 27.0241V32.9742Z" fill="black"/>
<defs>
<clipPath id="clip0_14_64">
<rect width="46" height="46" fill="white" transform="translate(127 7)"/>
</clipPath>
<clipPath id="clip1_14_64">
<rect width="42" height="42" fill="white" transform="translate(309 9)"/>
</clipPath>
</defs>
</svg>
