<svg width="360" height="60" viewBox="0 0 360 60" fill="none" xmlns="http://www.w3.org/2000/svg">
<rect width="360" height="60" fill="white"/>
<path d="M11.6113 23.6975H19.6982V48.0337H11.6113V23.6975ZM15.7089 11.9664C12.9411 11.9664 11.1328 13.7835 11.1328 16.1685C11.1328 18.5045 12.8882 20.3744 15.6031 20.3744H15.6546C18.4754 20.3744 20.232 18.5044 20.232 16.1685C20.1791 13.7835 18.4755 11.9664 15.7089 11.9664ZM39.5539 23.1258C35.2612 23.1258 33.3381 25.4869 32.2653 27.1428V23.6975H24.176C24.2831 25.9805 24.176 48.0337 24.176 48.0337H32.2653V34.4426C32.2653 33.7147 32.3182 32.9895 32.5311 32.4681C33.1168 31.0149 34.4477 29.5101 36.6802 29.5101C39.6093 29.5101 40.7791 31.7428 40.7791 35.0129V48.0336H48.8672V34.0788C48.8672 26.6039 44.8779 23.1258 39.5539 23.1258Z" fill="black"/>
<path fill-rule="evenodd" clip-rule="evenodd" d="M109.541 26.5966C109.278 25.3081 108.883 24.0391 108.372 22.8269C107.87 21.6366 107.246 20.4909 106.523 19.4199C105.805 18.3578 104.981 17.3598 104.074 16.4535C103.168 15.5455 102.169 14.7212 101.107 14.0047C100.036 13.2785 98.8892 12.6578 97.7005 12.1539C96.4883 11.6436 95.2201 11.2476 93.9308 10.9863C92.6106 10.7153 91.2507 10.5774 89.8925 10.5774C88.5326 10.5774 87.1743 10.7153 85.8526 10.9863C84.5641 11.2476 83.2951 11.6444 82.0837 12.1539C80.895 12.6578 79.7477 13.2793 78.675 14.0047C77.6129 14.7212 76.6149 15.5447 75.7086 16.4535C74.8015 17.3598 73.9787 18.3586 73.2615 19.4199C72.5369 20.4909 71.9146 21.6366 71.4123 22.8269C70.8987 24.0391 70.5052 25.3081 70.2415 26.5966C69.9713 27.9151 69.8342 29.275 69.8342 30.6341C69.8342 31.9956 69.9713 33.3555 70.2415 34.6748C70.5052 35.9633 70.8995 37.2323 71.4115 38.4437C71.9138 39.6324 72.5369 40.7813 73.2607 41.8523C73.9779 42.9144 74.8007 43.9108 75.7078 44.8188C76.6141 45.7251 77.6129 46.5478 78.6742 47.2659C79.7469 47.9905 80.8942 48.6128 82.0829 49.1151C83.2935 49.6287 84.5633 50.0198 85.8518 50.2843C87.1735 50.5569 88.5318 50.6932 89.8917 50.6932C91.2499 50.6932 92.6098 50.5569 93.9299 50.2843C95.2201 50.0198 96.4874 49.6279 97.6997 49.1151C98.8883 48.6128 100.036 47.9897 101.107 47.2659C102.169 46.5478 103.167 45.7259 104.073 44.8188C104.979 43.9108 105.804 42.9136 106.522 41.8523C107.246 40.7813 107.869 39.6324 108.371 38.4437C108.883 37.2331 109.277 35.9633 109.54 34.6748C109.811 33.3547 109.948 31.9948 109.948 30.6341C109.948 29.275 109.812 27.9151 109.541 26.5966ZM107.014 30.4645C106.767 30.411 100.97 29.163 95.0846 29.903C94.9645 29.6101 94.842 29.3148 94.7154 29.0186C94.3592 28.1804 93.9754 27.3496 93.5762 26.5341C100.342 23.7738 103.088 19.8021 103.12 19.755C105.522 22.6711 106.975 26.3986 107.014 30.4645ZM101.205 17.7793C101.162 17.8458 98.7228 21.5587 92.2577 23.9823C89.3294 18.602 86.1122 14.3284 85.855 13.9893C87.15 13.6753 88.5001 13.5057 89.8917 13.5057C94.2294 13.5057 98.1865 15.122 101.205 17.7793ZM85.7885 14.0031C85.7885 14.0047 85.7852 14.0063 85.7852 14.0063C85.7852 14.0063 85.7666 14.0112 85.7349 14.0177C85.752 14.0128 85.7714 14.0096 85.7885 14.0031ZM82.5827 15.1423C82.8107 15.4482 85.9792 19.7428 88.944 25.012C80.7189 27.197 73.5812 27.1119 73.1284 27.1037C74.2416 21.7981 77.8061 17.3987 82.5827 15.1423ZM72.7625 30.6341C72.7625 30.4515 72.7706 30.273 72.7771 30.0929C73.0789 30.0994 81.5433 30.2917 90.3623 27.6522C90.8532 28.6129 91.323 29.589 91.7522 30.5643C91.5258 30.6276 91.3002 30.6958 91.0771 30.7688C81.833 33.7563 77.144 42.0747 77.144 42.0747C77.144 42.0747 77.1505 42.0795 77.1505 42.0828C74.4234 39.0474 72.7625 35.0351 72.7625 30.6341ZM89.8917 47.7649C85.7463 47.7649 81.9441 46.2914 78.9809 43.8394C79.2057 44.022 79.3647 44.1388 79.3647 44.1388C79.3647 44.1388 82.6484 36.9775 92.8062 33.4382C92.8443 33.4236 92.8824 33.4131 92.9206 33.4017C95.3312 39.6648 96.326 44.9105 96.5799 46.4075C94.5239 47.2821 92.2642 47.7649 89.8917 47.7649ZM99.4636 44.8431C99.2892 43.8086 98.3764 38.7812 96.1296 32.6074C101.658 31.723 106.451 33.2395 106.804 33.3555C106.042 38.1281 103.31 42.245 99.4636 44.8431Z" fill="black"/>
<path d="M140.319 38.669C140.906 38.669 141.464 38.6169 141.989 38.4993C142.522 38.3837 142.994 38.1983 143.394 37.9254C143.792 37.663 144.123 37.3026 144.362 36.8465C144.603 36.3924 144.718 35.803 144.718 35.0916C144.718 33.6971 144.325 32.7056 143.545 32.1048C142.762 31.5111 141.719 31.2164 140.437 31.2164H133.958V38.669H140.319V38.669ZM139.989 27.1485C141.044 27.1485 141.919 26.8985 142.612 26.3904C143.297 25.8893 143.628 25.0635 143.628 23.9283C143.628 23.2993 143.519 22.7786 143.297 22.3745C143.067 21.9704 142.762 21.6549 142.378 21.433C141.997 21.2028 141.566 21.0445 141.067 20.9581C140.576 20.8623 140.062 20.8248 139.534 20.8248H133.958V27.1485H139.989V27.1485ZM140.76 16.2142C142.054 16.2142 143.223 16.3257 144.29 16.558C145.353 16.7829 146.258 17.1589 147.024 17.6744C147.778 18.1899 148.369 18.8752 148.792 19.7385C149.203 20.5894 149.41 21.6549 149.41 22.9139C149.41 24.2761 149.102 25.4144 148.482 26.3247C147.859 27.2329 146.944 27.9774 145.722 28.5565C147.386 29.0356 148.621 29.8781 149.438 31.0769C150.26 32.2839 150.663 33.7274 150.663 35.4208C150.663 36.7933 150.401 37.9744 149.875 38.9689C149.345 39.975 148.623 40.7905 147.733 41.4195C146.837 42.0538 145.809 42.5203 144.655 42.8234C143.515 43.1254 142.33 43.2785 141.116 43.2785H128V16.2142H140.76V16.2142Z" fill="#030404"/>
<path d="M165.341 28.2826C164.701 27.5755 163.619 27.1923 162.297 27.1923C161.437 27.1923 160.726 27.337 160.155 27.6318C159.597 27.9233 159.14 28.2847 158.792 28.7117C158.444 29.145 158.208 29.6032 158.07 30.0927C157.932 30.5697 157.849 31.0019 157.825 31.3841H166.582C166.454 30.0114 165.984 28.9961 165.341 28.2826V28.2826ZM159.156 38.5795C159.963 39.3669 161.129 39.7626 162.639 39.7626C163.724 39.7626 164.661 39.4887 165.449 38.9409C166.229 38.3941 166.704 37.8098 166.887 37.2037H171.628C170.865 39.5626 169.71 41.2467 168.132 42.2611C166.573 43.2786 164.674 43.7858 162.459 43.7858C160.915 43.7858 159.526 43.5358 158.278 43.0442C157.032 42.5453 155.99 41.8476 155.113 40.9363C154.259 40.0219 153.596 38.9409 153.123 37.6714C152.655 36.4081 152.42 35.0094 152.42 33.4941C152.42 32.0287 152.665 30.6603 153.144 29.3949C153.631 28.1254 154.308 27.0298 155.197 26.1113C156.087 25.1874 157.142 24.4584 158.371 23.9252C159.601 23.3951 160.957 23.1285 162.459 23.1285C164.117 23.1285 165.567 23.4472 166.813 24.0971C168.052 24.7386 169.07 25.6071 169.868 26.6944C170.666 27.7796 171.236 29.021 171.591 30.4135C171.943 31.8038 172.067 33.2556 171.966 34.7761H157.825C157.825 36.3258 158.348 37.7921 159.156 38.5795V38.5795Z" fill="#030404"/>
<path d="M167.694 18.0306H156.723V20.7009H167.694V18.0306Z" fill="#030404"/>
<path fill-rule="evenodd" clip-rule="evenodd" d="M210 9.875C198.886 9.875 189.875 19.1109 189.875 30.5121C189.875 39.6313 195.643 47.3578 203.639 50.0891C204.645 50.2777 205.014 49.6398 205.014 49.0918C205.014 48.5977 204.996 47.3039 204.987 45.5789C199.389 46.8277 198.204 42.8117 198.204 42.8117C197.287 40.4309 195.966 39.793 195.966 39.793C194.143 38.5082 196.101 38.5352 196.101 38.5352C198.123 38.6789 199.183 40.6645 199.183 40.6645C200.98 43.818 203.891 42.9105 205.041 42.3805C205.22 41.0508 205.741 40.1344 206.316 39.6223C201.851 39.1012 197.152 37.3313 197.152 29.425C197.152 27.1699 197.934 25.3281 199.219 23.8906C199.012 23.3695 198.32 21.2672 199.416 18.4281C199.416 18.4281 201.105 17.8711 204.951 20.5395C206.559 20.0812 208.275 19.8566 209.991 19.8477C211.698 19.8566 213.423 20.0812 215.031 20.5395C218.877 17.8711 220.557 18.4281 220.557 18.4281C221.653 21.2672 220.961 23.3695 220.754 23.8906C222.039 25.3371 222.821 27.1789 222.821 29.425C222.821 37.3492 218.113 39.0922 213.63 39.6043C214.348 40.2422 214.995 41.5 214.995 43.4227C214.995 46.1809 214.968 48.409 214.968 49.0828C214.968 49.6309 215.328 50.2777 216.352 50.0711C224.366 47.3488 230.125 39.6223 230.125 30.5121C230.125 19.1109 221.114 9.875 210 9.875Z" fill="black"/>
<g clip-path="url(#clip0_14_64)">
<path fill-rule="evenodd" clip-rule="evenodd" d="M290.934 30C290.934 18.4464 281.554 9.06616 270 9.06616H269.999C258.446 9.06616 249.066 18.4464 249.066 30C249.066 41.5537 258.446 50.9339 269.999 50.9339H270C281.554 50.9339 290.934 41.5537 290.934 30ZM272.102 30.0002C272.102 35.1461 267.959 39.3176 262.848 39.3176C257.737 39.3176 253.594 35.1451 253.594 30.0002C253.594 24.8552 257.737 20.6824 262.848 20.6824C267.959 20.6824 272.102 24.8543 272.102 30.0002ZM282.254 30.0002C282.254 34.844 280.182 38.7721 277.627 38.7721C275.071 38.7721 273 34.844 273 30.0002C273 25.1564 275.071 21.2282 277.626 21.2282C280.182 21.2282 282.254 25.1552 282.254 30.0002H282.254ZM286.406 30.0002C286.406 34.339 285.678 37.8585 284.779 37.8585C283.88 37.8585 283.152 34.34 283.152 30.0002C283.152 25.6604 283.88 22.1419 284.779 22.1419C285.677 22.1419 286.406 25.6601 286.406 30.0002Z" fill="black"/>
</g>
<path d="M349.88 22.2272L330.992 9.63516C330.347 9.23832 329.659 9.23473 329.008 9.63516L310.12 22.2272C309.636 22.5499 309.336 23.1267 309.336 23.7031V36.2951C309.336 36.8716 309.636 37.4483 310.12 37.771L329.008 50.365C329.653 50.7617 330.341 50.7654 330.992 50.365L349.88 37.771C350.364 37.4484 350.664 36.8716 350.664 36.2951V23.7031C350.664 23.1267 350.364 22.5499 349.88 22.2272ZM331.776 14.4319L345.682 23.7031L339.478 27.8545L331.776 22.7115V14.4319ZM328.224 14.4319V22.7114L320.521 27.8544L314.317 23.703L328.224 14.4319ZM312.888 27.0241L317.339 29.9991L312.888 32.9742V27.0241ZM328.224 45.5663L314.317 36.2951L320.521 32.1439L328.224 37.2869V45.5663ZM330 34.1963L323.727 29.9991L330 25.8017L336.273 29.9991L330 34.1963ZM331.776 45.5663V37.287L339.478 32.144L345.682 36.2952L331.776 45.5663ZM347.112 32.9742L342.661 29.9991L347.112 27.0241V32.9742Z" fill="black"/>
<defs>
<clipPath id="clip0_14_64">
<rect width="42" height="42" fill="white" transform="translate(249 9)"/>
</clipPath>
</defs>
</svg>
